<svg version="1.1" xmlns="http://www.w3.org/2000/svg" xmlns:xlink="http://www.w3.org/1999/xlink" viewBox="0 0 172 172"><g fill="none" fill-rule="nonzero" stroke="none" stroke-width="1" stroke-linecap="butt" stroke-linejoin="miter" stroke-miterlimit="10" stroke-dasharray="" stroke-dashoffset="0" font-family="none" font-weight="none" font-size="none" text-anchor="none" style="mix-blend-mode: normal"><path d="M0,172v-172h172v172z" fill="none"></path><g><path d="M131.15,117.17285c-7.7056,0 -13.975,-6.2694 -13.975,-13.975c0,-7.7056 6.2694,-13.975 13.975,-13.975c9.92655,0 13.975,2.59505 13.975,8.95905c0,7.4992 -6.2608,18.99095 -13.975,18.99095z" fill="#e8d47b"></path><path d="M131.15,90.29785c10.707,0 12.9,3.1519 12.9,7.88405c0,9.2278 -7.267,17.91595 -12.9,17.91595c-7.1122,0 -12.9,-5.7878 -12.9,-12.9c0,-7.1122 5.7878,-12.9 12.9,-12.9M131.15,88.14785c-8.3119,0 -15.05,6.7381 -15.05,15.05c0,8.3119 6.7381,15.05 15.05,15.05c8.3119,0 15.05,-11.75405 15.05,-20.06595c0,-8.3119 -6.7381,-10.03405 -15.05,-10.03405z" fill="#ba9b48"></path><path d="M40.85,117.17285c-7.7142,0 -13.975,-11.49175 -13.975,-18.99095c0,-6.364 4.04845,-8.95905 13.975,-8.95905c7.7056,0 13.975,6.2694 13.975,13.975c0,7.7056 -6.2694,13.975 -13.975,13.975z" fill="#e8d47b"></path><path d="M40.85,90.29785c7.1122,0 12.9,5.7878 12.9,12.9c0,7.1122 -5.7878,12.9 -12.9,12.9c-5.633,0 -12.9,-8.68815 -12.9,-17.91595c0,-4.73215 2.193,-7.88405 12.9,-7.88405M40.85,88.14785c-8.3119,0 -15.05,1.72215 -15.05,10.03405c0,8.3119 6.7381,20.06595 15.05,20.06595c8.3119,0 15.05,-6.7381 15.05,-15.05c0,-8.3119 -6.7381,-15.05 -15.05,-15.05z" fill="#ba9b48"></path><path d="M86,166.625c-4.7902,0 -9.3009,-2.1113 -12.37755,-5.7964l-0.2107,-0.25155l-0.31605,-0.09245c-19.6166,-5.6932 -33.3207,-23.94455 -33.3207,-44.3846v-62.8617c0,-11.8379 9.62985,-21.4656 21.46775,-21.4656h49.5145c11.8379,0 21.46775,9.62985 21.46775,21.4656v62.8617c0,20.44005 -13.7041,38.6914 -33.32285,44.3846l-0.31605,0.09245l-0.2107,0.25155c-3.0745,3.6851 -7.5852,5.7964 -12.3754,5.7964z" fill="#ffeea3"></path><path d="M110.75725,32.84555c11.2445,0 20.39275,9.14825 20.39275,20.39275v62.8617c0,19.9649 -13.38375,37.7927 -32.5467,43.3526l-0.62995,0.18275l-0.4214,0.5031c-2.8724,3.44 -7.0821,5.41155 -11.55195,5.41155c-4.46985,0 -8.67955,-1.97155 -11.55195,-5.41155l-0.4214,-0.5031l-0.62995,-0.18275c-19.16295,-5.56205 -32.5467,-23.38985 -32.5467,-43.3526v-62.8617c0,-11.2445 9.14825,-20.39275 20.39275,-20.39275h49.5145M110.75725,30.69555h-49.5145c-12.45065,0 -22.54275,10.0921 -22.54275,22.54275v62.8617c0,21.5387 14.40285,39.7019 34.09685,45.41875c3.1562,3.7754 7.89695,6.18125 13.20315,6.18125c5.3062,0 10.04695,-2.40585 13.20315,-6.1834c19.694,-5.7147 34.09685,-23.8779 34.09685,-45.4166v-62.8617c0,-12.45065 -10.0921,-22.54275 -22.54275,-22.54275z" fill="#ba9b48"></path><g fill="#333333"><path d="M132.225,108.575v-29.84415c0,-23.6457 -19.89825,-30.2419 -20.10035,-30.3064l-0.67725,-0.215l-0.4644,0.53965c-0.14405,0.1677 -14.78125,16.82375 -42.4926,16.82375c-8.6344,0 -28.71755,2.3736 -28.71755,24.37025v18.6319h-0.33755c-1.8275,-4.7859 -12.5603,-33.6991 -12.5603,-53.21895c0,-12.427 5.1815,-24.83465 14.2158,-34.03665c7.14015,-7.27345 19.9821,-15.9444 40.6092,-15.9444c17.9697,0 27.4856,9.0386 31.55985,14.42865l0.3225,0.4257h0.53535c8.0453,0 31.0073,6.73165 31.0073,36.64245c0,15.3553 -10.7844,46.59695 -12.58395,51.7032z"></path><path d="M81.7,6.45c17.50315,0 26.74815,8.772 30.702,14.0008l0.645,0.85355h1.0707c7.7658,0 29.9323,6.53385 29.9323,35.56745c0,12.39045 -7.14875,35.3718 -10.75,46.1648v-24.30575c0,-12.7323 -5.6416,-20.56905 -10.37375,-24.9013c-5.12775,-4.6956 -10.2598,-6.3597 -10.4748,-6.4285l-1.3545,-0.4257l-0.92665,1.075c-0.1419,0.16125 -14.50605,16.44965 -41.67775,16.44965c-18.9329,0 -29.79255,9.2751 -29.79255,25.44525v13.5063c-3.58835,-10.10285 -10.75,-32.25215 -10.75,-48.0955c0,-12.1475 5.0697,-24.27995 13.9062,-33.282c6.9961,-7.1294 19.58865,-15.62405 39.8438,-15.62405M81.7,4.3c-35.8061,0 -55.9,26.359 -55.9,51.05605c0,21.68705 12.9,54.29395 12.9,54.29395h2.15c0,0 0,-13.73635 0,-19.7026c0,-18.3352 14.58345,-23.2974 27.64255,-23.2974c28.57995,0 43.30745,-17.2 43.30745,-17.2c0,0 19.35,6.149 19.35,29.283c0,6.5618 0,30.917 0,30.917h2.15c0,0 12.9,-35.72655 12.9,-52.77605c0,-30.02905 -23.0351,-37.7196 -32.0823,-37.7196c-2.28545,-3.0229 -11.8035,-14.85435 -32.4177,-14.85435z"></path></g><path d="M108.575,101.05c-2.96853,0 -5.375,2.40647 -5.375,5.375c0,2.96853 2.40647,5.375 5.375,5.375c2.96853,0 5.375,-2.40647 5.375,-5.375c0,-2.96853 -2.40647,-5.375 -5.375,-5.375zM63.425,101.05c-2.96853,0 -5.375,2.40647 -5.375,5.375c0,2.96853 2.40647,5.375 5.375,5.375c2.96853,0 5.375,-2.40647 5.375,-5.375c0,-2.96853 -2.40647,-5.375 -5.375,-5.375z" fill="#36404d"></path></g></g></svg>